<svg width="16" height="16" viewBox="0 0 16 16" fill="none" xmlns="http://www.w3.org/2000/svg">
<g clip-path="url(#clip0_356_2865)">
<path d="M8 0C3.58849 0 0 3.58849 0 8C0 12.4115 3.58849 16 8 16C12.4115 16 16 12.4115 16 8C16 3.58849 12.4115 0 8 0ZM8 2.85712C9.57119 2.85712 10.8571 4.14313 10.8571 5.71431C10.8571 7.2855 9.57119 8.57144 8 8.57144C6.42881 8.57144 5.14286 7.2855 5.14286 5.71431C5.14286 4.14313 6.42881 2.85712 8 2.85712V2.85712ZM5.71429 9.71431H10.2857C11.8459 9.71431 13.1199 10.9781 13.1406 12.5335C11.8852 13.9566 10.052 14.8571 8 14.8571C5.94803 14.8571 4.11482 13.9566 2.85937 12.5335C2.88006 10.9781 4.15412 9.71431 5.71429 9.71431V9.71431Z" fill="#495057"/>
</g>
<defs>
<clipPath id="clip0_356_2865">
<rect width="16" height="16" fill="white"/>
</clipPath>
</defs>
</svg>
